<?xml version="1.0" encoding="utf-8"?>
<!-- Generator: Adobe Illustrator 28.1.0, SVG Export Plug-In . SVG Version: 6.00 Build 0)  -->
<svg version="1.1" id="Layer_1" xmlns="http://www.w3.org/2000/svg" xmlns:xlink="http://www.w3.org/1999/xlink" x="0px" y="0px"
	 viewBox="0 0 1581.6 993.3" style="enable-background:new 0 0 1581.6 993.3;" xml:space="preserve">
<style type="text/css">
	.st0{fill:#FCF6C1;}
</style>
<g>
	
		<image style="overflow:visible;opacity:0.5;" width="1572" height="508" xlink:href="B67B7C5B94DFFE6E.png"  transform="matrix(1 0 0 1 33.0194 34.9694)">
	</image>
	<g>
		<g>
			<path d="M145.5,47.1v183.6c21.3-22.3,47.9-33.4,79.8-33.4c19,0,36.3,3.6,52.1,10.7c15.8,7.2,29.3,16.8,40.4,28.9
				c11.1,12.1,19.9,26.4,26.2,42.9c6.3,16.5,9.5,34,9.5,52.6c0,19-3.2,36.8-9.7,53.4c-6.5,16.6-15.6,31.1-27.2,43.4
				c-11.6,12.3-25.4,22-41.2,29.2c-15.8,7.1-32.9,10.7-51.1,10.7c-33.3,0-59.6-12.1-78.8-36.4v28.4H55.2V47.1H145.5z M259.3,334
				c0-8-1.5-15.5-4.5-22.7c-3-7.1-7.2-13.4-12.5-18.7c-5.3-5.3-11.5-9.6-18.5-12.7c-7-3.2-14.6-4.7-23-4.7c-8,0-15.5,1.5-22.5,4.5
				c-7,3-13.1,7.2-18.2,12.5c-5.2,5.3-9.3,11.6-12.5,18.7c-3.2,7.2-4.7,14.7-4.7,22.7s1.5,15.5,4.5,22.5c3,7,7.1,13.1,12.5,18.2
				c5.3,5.2,11.6,9.3,18.7,12.5c7.1,3.2,14.7,4.7,22.7,4.7s15.5-1.5,22.5-4.5c7-3,13.1-7.2,18.2-12.5c5.2-5.3,9.3-11.5,12.5-18.5
				C257.7,349,259.3,341.7,259.3,334z"/>
			<path d="M587.7,205.3h90.8v256h-90.8v-28.4c-19.3,24.3-45.4,36.4-78.3,36.4c-18.6,0-35.8-3.4-51.4-10.2
				c-15.6-6.8-29.3-16.4-40.9-28.7c-11.6-12.3-20.7-26.8-27.2-43.4c-6.5-16.6-9.7-34.8-9.7-54.4c0-18.3,3.2-35.7,9.5-52.1
				c6.3-16.5,15.1-30.9,26.4-43.2c11.3-12.3,24.8-22,40.4-29.2c15.6-7.1,32.9-10.7,51.9-10.7c31.9,0,58.4,11.1,79.3,33.4V205.3z
				 M473.9,332.5c0,8.3,1.5,16.1,4.5,23.2c3,7.2,7.1,13.4,12.2,18.7c5.2,5.3,11.3,9.5,18.5,12.5c7.2,3,14.9,4.5,23.2,4.5
				c8,0,15.5-1.5,22.7-4.5c7.1-3,13.3-7.2,18.5-12.5c5.2-5.3,9.3-11.5,12.5-18.5c3.2-7,4.7-14.5,4.7-22.5s-1.6-15.5-4.7-22.7
				c-3.2-7.1-7.3-13.4-12.5-18.7c-5.2-5.3-11.3-9.5-18.5-12.5c-7.2-3-14.7-4.5-22.7-4.5c-8.3,0-16.1,1.5-23.2,4.5
				c-7.2,3-13.3,7.2-18.5,12.5c-5.2,5.3-9.2,11.4-12.2,18.2C475.4,317.2,473.9,324.6,473.9,332.5z"/>
			<path d="M840.6,280.7v180.6h-90.3V280.7h-29.9v-75.3h29.9v-76.8h90.3v76.8H892v75.3H840.6z"/>
			<path d="M1040.2,280.7v180.6h-90.3V280.7H920v-75.3h29.9v-76.8h90.3v76.8h51.4v75.3H1040.2z"/>
			<path d="M1224.4,47.1v414.2H1134V47.1H1224.4z"/>
			<path d="M1352.6,348.5c0,38.9,18.3,58.4,54.9,58.4c19.6,0,34.4-8,44.4-24h87.3c-17.6,58.6-61.7,87.8-132.2,87.8
				c-21.6,0-41.4-3.2-59.4-9.7c-18-6.5-33.4-15.7-46.2-27.7c-12.8-12-22.7-26.3-29.7-42.9c-7-16.6-10.5-35.3-10.5-55.9
				c0-21.3,3.3-40.5,10-57.6c6.7-17.1,16.1-31.7,28.4-43.7c12.3-12,27.2-21.2,44.7-27.7c17.5-6.5,37.2-9.7,59.1-9.7
				c21.6,0,41.1,3.2,58.4,9.7c17.3,6.5,31.9,15.9,43.9,28.2c12,12.3,21.1,27.4,27.4,45.2c6.3,17.8,9.5,37.8,9.5,60.1v9.5H1352.6z
				 M1458.4,296.1c-3-12.6-9.2-22.8-18.5-30.4c-9.3-7.6-20.6-11.5-33.9-11.5c-14,0-25.4,3.7-34.2,11c-8.8,7.3-14.4,17.6-16.7,30.9
				H1458.4z"/>
		</g>
	</g>
</g>
<g>
	
		<image style="overflow:visible;opacity:0.5;" width="1333" height="322" xlink:href="B67B7C5B94DFFE6D.png"  transform="matrix(1 0 0 1 270.0194 479.9694)">
	</image>
	<g>
		<g>
			<path d="M342.9,492v103c11.9-12.5,26.9-18.8,44.8-18.8c10.6,0,20.4,2,29.3,6c8.9,4,16.4,9.4,22.7,16.2
				c6.3,6.8,11.2,14.8,14.7,24.1c3.5,9.2,5.3,19.1,5.3,29.5c0,10.6-1.8,20.6-5.5,30c-3.6,9.3-8.7,17.5-15.3,24.4
				c-6.5,6.9-14.2,12.4-23.1,16.4c-8.9,4-18.4,6-28.7,6c-18.7,0-33.4-6.8-44.2-20.4v16h-50.7V492H342.9z M406.8,653
				c0-4.5-0.8-8.7-2.5-12.7c-1.7-4-4-7.5-7-10.5c-3-3-6.4-5.4-10.4-7.1c-3.9-1.8-8.2-2.7-12.9-2.7c-4.5,0-8.7,0.8-12.6,2.5
				c-3.9,1.7-7.3,4-10.2,7c-2.9,3-5.2,6.5-7,10.5c-1.8,4-2.7,8.3-2.7,12.7c0,4.5,0.8,8.7,2.5,12.6c1.7,3.9,4,7.3,7,10.2
				c3,2.9,6.5,5.2,10.5,7c4,1.8,8.3,2.7,12.7,2.7s8.7-0.8,12.6-2.5c3.9-1.7,7.3-4,10.2-7c2.9-3,5.2-6.4,7-10.4
				C405.9,661.4,406.8,657.3,406.8,653z"/>
			<path d="M488.5,580.8h50.7v23.5c5.4-8.6,12-15.2,19.9-19.7c7.8-4.6,17-6.9,27.4-6.9c1.3,0,2.8,0,4.3,0c1.6,0,3.4,0.2,5.5,0.6
				v48.4c-6.7-3.4-14-5-21.8-5c-11.8,0-20.6,3.5-26.5,10.5c-5.9,7-8.8,17.2-8.8,30.7v61.6h-50.7V580.8z"/>
			<path d="M731.6,580.8h51v143.6h-51v-16c-10.8,13.6-25.5,20.4-44,20.4c-10.5,0-20.1-1.9-28.8-5.7c-8.8-3.8-16.4-9.2-23-16.1
				c-6.5-6.9-11.6-15-15.3-24.4c-3.6-9.3-5.5-19.5-5.5-30.5c0-10.3,1.8-20,5.3-29.3c3.5-9.2,8.5-17.3,14.8-24.2
				c6.3-6.9,13.9-12.4,22.7-16.4c8.8-4,18.5-6,29.1-6c17.9,0,32.8,6.3,44.5,18.8V580.8z M667.7,652.2c0,4.7,0.8,9,2.5,13
				c1.7,4,4,7.5,6.9,10.5c2.9,3,6.3,5.3,10.4,7c4,1.7,8.4,2.5,13,2.5c4.5,0,8.7-0.8,12.7-2.5c4-1.7,7.5-4,10.4-7
				c2.9-3,5.2-6.4,7-10.4c1.8-3.9,2.7-8.1,2.7-12.6c0-4.5-0.9-8.7-2.7-12.7c-1.8-4-4.1-7.5-7-10.5c-2.9-3-6.3-5.3-10.4-7
				c-4-1.7-8.3-2.5-12.7-2.5c-4.7,0-9,0.8-13,2.5c-4,1.7-7.5,4-10.4,7c-2.9,3-5.2,6.4-6.9,10.2C668.6,643.6,667.7,647.7,667.7,652.2
				z M750.3,516.7l-48.7,43.1l-23.5-17.4l40-49L750.3,516.7z"/>
			<path d="M859.5,580.8l34.2,73.6l34.7-73.6H985l-74.8,143.6h-33.9l-73.9-143.6H859.5z"/>
			<path d="M1041.2,661.2c0,21.8,10.3,32.8,30.8,32.8c11,0,19.3-4.5,24.9-13.4h49c-9.9,32.9-34.6,49.3-74.2,49.3
				c-12.1,0-23.2-1.8-33.3-5.5c-10.1-3.6-18.7-8.8-25.9-15.5c-7.2-6.7-12.7-14.7-16.7-24.1c-3.9-9.3-5.9-19.8-5.9-31.4
				c0-11.9,1.9-22.7,5.6-32.3c3.7-9.6,9.1-17.8,16-24.5c6.9-6.7,15.3-11.9,25.1-15.5c9.8-3.6,20.9-5.5,33.2-5.5
				c12.1,0,23.1,1.8,32.8,5.5c9.7,3.6,17.9,8.9,24.6,15.8c6.7,6.9,11.9,15.4,15.4,25.3c3.5,10,5.3,21.2,5.3,33.7v5.3H1041.2z
				 M1100.6,631.8c-1.7-7.1-5.1-12.8-10.4-17.1c-5.2-4.3-11.6-6.4-19-6.4c-7.8,0-14.2,2.1-19.2,6.2c-4.9,4.1-8.1,9.9-9.4,17.4
				H1100.6z"/>
			<path d="M1227.4,492v232.4h-50.7V492H1227.4z"/>
			<path d="M1312.8,492v232.4h-50.7V492H1312.8z"/>
			<path d="M1344.2,525.7c0-3.9,0.7-7.6,2.2-11.1c1.5-3.5,3.5-6.5,6.2-9.1c2.6-2.6,5.6-4.7,9.1-6.2c3.5-1.5,7.1-2.2,11.1-2.2
				c3.9,0,7.6,0.7,11.1,2.2c3.5,1.5,6.5,3.5,9.1,6.2c2.6,2.6,4.7,5.6,6.2,9.1c1.5,3.5,2.2,7.1,2.2,11.1c0,3.9-0.7,7.6-2.2,11.1
				c-1.5,3.5-3.5,6.5-6.2,9.1c-2.6,2.6-5.6,4.7-9.1,6.2c-3.5,1.5-7.1,2.2-11.1,2.2c-3.9,0-7.6-0.7-11.1-2.2
				c-3.5-1.5-6.5-3.5-9.1-6.2c-2.6-2.6-4.7-5.6-6.2-9.1C1344.9,533.3,1344.2,529.6,1344.2,525.7z M1398.2,580.8v143.6h-50.7V580.8
				H1398.2z"/>
			<path d="M1433,580.8h50.7v23.5c5.4-8.6,12-15.2,19.9-19.7c7.8-4.6,17-6.9,27.4-6.9c1.3,0,2.8,0,4.3,0c1.6,0,3.4,0.2,5.5,0.6v48.4
				c-6.7-3.4-14-5-21.8-5c-11.8,0-20.6,3.5-26.5,10.5s-8.8,17.2-8.8,30.7v61.6H1433V580.8z"/>
		</g>
	</g>
</g>
<g>
	
		<image style="overflow:visible;opacity:0.5;" width="276" height="318" xlink:href="B67B7C5B94DFFE6A.png"  transform="matrix(1 0 0 1 34.0194 479.9694)">
	</image>
	<g>
		<g>
			<path d="M185.4,725c-8.5,0-16.4-1.7-23.7-5.1c-7.4-3.4-13.7-8.2-19.2-14.3c-5.4-6.1-9.7-13.3-12.8-21.7
				c-3.1-8.4-4.7-17.6-4.7-27.5c0-9.8,1.5-18.9,4.6-27.3c3-8.4,7.3-15.7,12.7-21.9c5.4-6.2,11.9-11,19.4-14.4
				c7.5-3.4,15.8-5.1,24.9-5.1c9.1,0,17.4,1.8,24.9,5.2c7.5,3.5,14,8.3,19.4,14.4c5.4,6.1,9.6,13.4,12.6,22c3,8.6,4.5,17.8,4.5,27.8
				c0,9.8-1.5,18.9-4.5,27.2c-3,8.3-7.2,15.5-12.7,21.5c-5.5,6-12.1,10.7-19.7,14.2C203.3,723.3,194.8,725,185.4,725z M185.9,682.4
				c3.9,0,7.4-0.7,10.6-2.1c3.2-1.4,6-3.3,8.4-5.6c2.4-2.3,4.2-5.1,5.6-8.3c1.3-3.2,2-6.6,2-10.1c0-3.6-0.7-6.9-2-10.1
				c-1.3-3.2-3.2-5.9-5.6-8.3c-2.4-2.3-5.2-4.2-8.4-5.6c-3.2-1.4-6.7-2.1-10.4-2.1c-3.6,0-6.9,0.7-10.1,2.1c-3.2,1.4-6,3.3-8.4,5.6
				c-2.4,2.3-4.2,5.1-5.6,8.3c-1.3,3.2-2,6.6-2,10.1c0,3.6,0.7,7,2,10.1c1.3,3.2,3.2,5.9,5.6,8.3c2.4,2.3,5.1,4.2,8.3,5.6
				C179,681.7,182.3,682.4,185.9,682.4z"/>
			<path d="M162.9,520.8h80.7v40.4h-80.7v14.5h-33.7v-14.5h-17.2c-9.5,0-17.1-0.9-22.7-2.7c-4.8-1.5-9.2-3.9-13.3-7.1
				c-4.1-3.3-7.6-7.1-10.6-11.5c-3-4.4-5.3-9.1-6.9-14.2c-1.6-5.1-2.5-10-2.5-14.9c0-3.4,0.4-6.6,1.1-9.5c0.7-2.9,1.8-5.8,3.1-8.8
				h35.2c-1.3,2.7-2.3,5.2-3,7.5c-0.7,2.3-1,4.7-1,7.2c0,1.6,0.3,3.3,0.8,5c0.5,1.7,1.6,3.3,3.2,4.8c1.6,1.5,4,2.5,7,3
				c3,0.5,7.2,0.8,12.4,0.8h14.3v-28.3h33.7V520.8z"/>
		</g>
	</g>
</g>
<g>
	
		<image style="overflow:visible;opacity:0.5;" width="1564" height="270" xlink:href="B67B7C5B94DFFE65.png"  transform="matrix(1 0 0 1 35.0194 759.9694)">
	</image>
	<g>
		<g>
			<path class="st0" d="M117.3,917.8c-0.7,17.8-6.2,39.3-27.9,39.3c-28.4,0-32.1-35.3-32.1-56.6c0-20,4.2-57.3,31.1-57.3
				c25.9,0,29.9,33.3,29.9,52.9c0,2.2-0.2,4.7-0.2,6.9H71.4v2.5c0,11.1,1.7,38.5,17.5,38.5c12.3,0,14.1-16.8,14.3-26.2H117.3z
				 M104.5,891.2c-0.5-9.9-1.7-35.1-15.8-35.1c-14.3,0-16.5,24.9-17,35.1H104.5z"/>
			<path class="st0" d="M181.8,955.4v-80.3c0-8.9-0.2-20.5-12.3-20.5c-5.2,0-10.4,2.7-13.1,7.2c-3.7,5.4-3.7,12.8-3.7,19.3v74.3
				h-13.8V845h13.8v8.9c5.4-6.2,12.8-10.6,21.5-10.6c18.5,0,21.5,15.3,21.5,30.4v81.8H181.8z"/>
			<path class="st0" d="M295.9,857.8v97.6h-13.8v-97.6h-12.6V845h12.6v-44.2c0-14.1,3.7-28.2,20.5-28.2c4.2,0,8.4,0.7,12.3,2.5v15.3
				c-3-2.5-6.2-4.9-10.1-4.9c-8.2,0-8.9,7.4-8.9,13.6V845h19v12.8H295.9z M332.2,820.5c-5.7,0-10.4-4.7-10.4-10.1
				c0-5.9,4.4-10.6,10.4-10.6c5.7,0,10.1,4.9,10.1,10.6C342.3,815.8,337.9,820.5,332.2,820.5z M325,955.4V845h14.1v110.4H325z"/>
			<path class="st0" d="M364.3,955.4V775.3h14.1v180.1H364.3z"/>
			<path class="st0" d="M503.9,955.4H490v-81.8c0-9.1-1.5-19-12.8-19c-16.1,0-16.8,18-16.8,30.1v70.6h-14.1v-81.5
				c0-8.2-0.7-19.3-11.6-19.3c-17.3,0-17.8,19.5-17.8,32.4v68.4h-13.8V845h13.8v9.1c5.9-6.2,12.6-10.9,21.5-10.9
				c9.4,0,16.1,4.7,20.3,12.8c5.9-7.9,12.3-12.8,22.7-12.8c17.8,0,22.5,11.6,22.5,27.4V955.4z"/>
			<path class="st0" d="M628.1,955.4v-8.9c-4.9,6.7-10.1,10.6-18.8,10.6c-25.2,0-25.9-35.3-25.9-54.8c0-22.5,0.7-59,27.2-59
				c7.9,0,12.6,3,17.5,9.1V845h14.1v110.4H628.1z M614,854.4c-16.1,0-16.3,28.2-16.3,39.3c0,9.1,0,17.8,0.7,26.7
				c1,9.6,2.5,25.4,15.3,25.4c3.7,0,6.4-1,8.9-3.7c6.9-6.9,6.9-32.8,6.9-42.5C629.6,877.6,628.4,854.4,614,854.4z"/>
			<path class="st0" d="M696.5,955.4h-15.1L656.3,845h14.3l14.6,65.9c1.7,7.9,3,15.8,4,23.7c1.2-7.7,2.5-15.6,4-23.2l13.6-66.4H721
				L696.5,955.4z"/>
			<path class="st0" d="M848.9,955.4l-36.6-108.7c-2.5-7.7-4.7-15.3-6.7-23.2c1,8.6,1.5,17.3,1.5,25.9v106h-13.3V790.6h13.3
				l37.3,111.9c2.2,6.4,4,13.1,5.9,19.5c-1-6.7-1.5-13.6-1.5-20.3V790.6h13.3v164.7H848.9z"/>
			<path class="st0" d="M895.1,820.5c-5.7,0-10.4-4.7-10.4-10.1c0-5.9,4.4-10.6,10.4-10.6c5.7,0,10.1,4.9,10.1,10.6
				C905.2,815.8,900.8,820.5,895.1,820.5z M887.9,955.4V845H902v110.4H887.9z"/>
			<path class="st0" d="M968.2,867.4c-4.9-5.9-11.1-11.4-19-11.4c-8.2,0-13.6,6.7-13.6,14.6c0,21.5,35.6,25.4,35.6,55.3
				c0,17-12.1,31.1-29.6,31.1c-7.4,0-14.6-3-20.5-7.7v-16.3c5.4,5.7,11.6,10.9,19.5,10.9c9.9,0,16.1-7.9,16.1-17
				c0-21.7-35.6-29.1-35.6-55.8c0-16.1,11.4-27.9,27.4-27.9c7.4,0,13.6,2.7,19.8,7.2V867.4z"/>
			<path class="st0" d="M1029.7,867.4c-4.9-5.9-11.1-11.4-19-11.4c-8.2,0-13.6,6.7-13.6,14.6c0,21.5,35.6,25.4,35.6,55.3
				c0,17-12.1,31.1-29.6,31.1c-7.4,0-14.6-3-20.5-7.7v-16.3c5.4,5.7,11.6,10.9,19.5,10.9c9.9,0,16.1-7.9,16.1-17
				c0-21.7-35.6-29.1-35.6-55.8c0-16.1,11.4-27.9,27.4-27.9c7.4,0,13.6,2.7,19.8,7.2V867.4z"/>
			<path class="st0" d="M1105.3,917.8c-0.7,17.8-6.2,39.3-27.9,39.3c-28.4,0-32.1-35.3-32.1-56.6c0-20,4.2-57.3,31.1-57.3
				c25.9,0,29.9,33.3,29.9,52.9c0,2.2-0.2,4.7-0.2,6.9h-46.7v2.5c0,11.1,1.7,38.5,17.5,38.5c12.4,0,14.1-16.8,14.3-26.2H1105.3z
				 M1092.5,891.2c-0.5-9.9-1.7-35.1-15.8-35.1c-14.3,0-16.5,24.9-17,35.1H1092.5z"/>
			<path class="st0" d="M1240.6,955.4l-36.6-108.7c-2.5-7.7-4.7-15.3-6.7-23.2c1,8.6,1.5,17.3,1.5,25.9v106h-13.3V790.6h13.3
				l37.3,111.9c2.2,6.4,4,13.1,5.9,19.5c-1-6.7-1.5-13.6-1.5-20.3V790.6h13.3v164.7H1240.6z"/>
			<path class="st0" d="M1308.1,957.1c-28.4,0-32.4-35.6-32.4-57.1c0-21.5,4-56.8,32.4-56.8c28.7,0,30.9,36.3,30.9,57.5
				C1339,921.8,1336.5,957.1,1308.1,957.1z M1307.8,856.1c-17,0-17.5,33.6-17.5,45.2s0.7,42.7,17.5,42.7c16.3,0,16.8-32.9,16.8-44
				C1324.6,888.9,1324.1,856.1,1307.8,856.1z"/>
			<path class="st0" d="M1359.7,955.4V775.3h14.1v180.1H1359.7z"/>
			<path class="st0" d="M1440.5,955.4v-8.9c-4.9,6.7-10.1,10.6-18.8,10.6c-25.2,0-25.9-35.3-25.9-54.8c0-22.5,0.7-59,27.2-59
				c7.9,0,12.6,3,17.5,9.1V845h14.1v110.4H1440.5z M1426.4,854.4c-16.1,0-16.3,28.2-16.3,39.3c0,9.1,0,17.8,0.7,26.7
				c1,9.6,2.5,25.4,15.3,25.4c3.7,0,6.4-1,8.9-3.7c6.9-6.9,6.9-32.8,6.9-42.5C1442,877.6,1440.7,854.4,1426.4,854.4z"/>
			<path class="st0" d="M1522.2,955.4v-80.3c0-8.9-0.2-20.5-12.3-20.5c-5.2,0-10.4,2.7-13.1,7.2c-3.7,5.4-3.7,12.8-3.7,19.3v74.3
				h-13.8V845h13.8v8.9c5.4-6.2,12.8-10.6,21.5-10.6c18.5,0,21.5,15.3,21.5,30.4v81.8H1522.2z"/>
		</g>
	</g>
</g>
</svg>
